<svg width="25" height="24" viewBox="0 0 25 24" fill="none" xmlns="http://www.w3.org/2000/svg">
<path fill-rule="evenodd" clip-rule="evenodd" d="M13.454 5.25C13.454 5.05109 13.375 4.86032 13.2343 4.71967C13.0937 4.57902 12.9029 4.5 12.704 4.5H2.75C2.15326 4.5 1.58097 4.73705 1.15901 5.15901C0.737053 5.58097 0.5 6.15326 0.5 6.75L0.5 21.75C0.5 22.3467 0.737053 22.919 1.15901 23.341C1.58097 23.7629 2.15326 24 2.75 24H17.75C18.3467 24 18.919 23.7629 19.341 23.341C19.7629 22.919 20 22.3467 20 21.75V11.796C20 11.5971 19.921 11.4063 19.7803 11.2657C19.6397 11.125 19.4489 11.046 19.25 11.046C19.0511 11.046 18.8603 11.125 18.7197 11.2657C18.579 11.4063 18.5 11.5971 18.5 11.796V21.75C18.5 21.9489 18.421 22.1397 18.2803 22.2803C18.1397 22.421 17.9489 22.5 17.75 22.5H2.75C2.55109 22.5 2.36032 22.421 2.21967 22.2803C2.07902 22.1397 2 21.9489 2 21.75V6.75C2 6.55109 2.07902 6.36032 2.21967 6.21967C2.36032 6.07902 2.55109 6 2.75 6H12.704C12.9029 6 13.0937 5.92098 13.2343 5.78033C13.375 5.63968 13.454 5.44891 13.454 5.25Z" fill="black"/>
<path fill-rule="evenodd" clip-rule="evenodd" d="M24.5 0.75C24.5 0.551088 24.421 0.360322 24.2803 0.21967C24.1396 0.0790176 23.9489 0 23.75 0L16.25 0C16.0511 0 15.8603 0.0790176 15.7196 0.21967C15.579 0.360322 15.5 0.551088 15.5 0.75C15.5 0.948912 15.579 1.13968 15.7196 1.28033C15.8603 1.42098 16.0511 1.5 16.25 1.5H21.9395L9.71897 13.719C9.64924 13.7887 9.59392 13.8715 9.55619 13.9626C9.51845 14.0537 9.49902 14.1514 9.49902 14.25C9.49902 14.3486 9.51845 14.4463 9.55619 14.5374C9.59392 14.6285 9.64924 14.7113 9.71897 14.781C9.7887 14.8507 9.87149 14.906 9.9626 14.9438C10.0537 14.9815 10.1514 15.0009 10.25 15.0009C10.3486 15.0009 10.4462 14.9815 10.5373 14.9438C10.6285 14.906 10.7112 14.8507 10.781 14.781L23 2.5605V8.25C23 8.44891 23.079 8.63968 23.2196 8.78033C23.3603 8.92098 23.5511 9 23.75 9C23.9489 9 24.1396 8.92098 24.2803 8.78033C24.421 8.63968 24.5 8.44891 24.5 8.25V0.75Z" fill="black"/>
</svg>
