<svg width="24" height="25" viewBox="0 0 24 25" fill="none" xmlns="http://www.w3.org/2000/svg">
<path fill-rule="evenodd" clip-rule="evenodd" d="M12 11C10.8954 11 10 11.8954 10 13C10 14.1046 10.8954 15 12 15C13.1046 15 14 14.1046 14 13C14 11.8954 13.1046 11 12 11ZM8 13C8 10.7909 9.79086 9 12 9C14.2091 9 16 10.7909 16 13C16 15.2091 14.2091 17 12 17C9.79086 17 8 15.2091 8 13Z" fill="black"/>
<path fill-rule="evenodd" clip-rule="evenodd" d="M12 2.80078C11.7348 2.80078 11.4804 2.90614 11.2929 3.09367C11.1054 3.28121 11 3.53557 11 3.80078V3.97477C10.9979 4.49158 10.8448 4.99651 10.5594 5.4274C10.2741 5.85829 9.86895 6.19633 9.39393 6.39992C9.30938 6.43616 9.22042 6.46048 9.12961 6.47235C8.69798 6.6235 8.23333 6.66076 7.781 6.57874C7.26 6.48428 6.77925 6.2359 6.40073 5.86564L6.39285 5.85793L6.33289 5.79789C6.24002 5.70491 6.12934 5.63076 6.00794 5.58043C5.88654 5.53011 5.75642 5.50421 5.625 5.50421C5.49358 5.50421 5.36346 5.53011 5.24206 5.58043C5.12066 5.63076 5.01037 5.70452 4.9175 5.79749L4.91671 5.79828C4.82374 5.89115 4.74998 6.00144 4.69965 6.12284C4.64933 6.24424 4.62343 6.37437 4.62343 6.50578C4.62343 6.6372 4.64933 6.76732 4.69965 6.88872C4.74998 7.01012 4.82374 7.12041 4.91671 7.21328L4.98491 7.28147C5.35516 7.65999 5.60349 8.14079 5.69796 8.66178C5.79055 9.17241 5.73113 9.69875 5.52745 10.1756C5.34189 10.6621 5.01698 11.0835 4.59305 11.3867C4.16054 11.696 3.64498 11.8681 3.11338 11.8805L3.09 11.8808H3C2.73478 11.8808 2.48043 11.9861 2.29289 12.1737C2.10536 12.3612 2 12.6156 2 12.8808C2 13.146 2.10536 13.4004 2.29289 13.5879C2.48043 13.7754 2.73478 13.8808 3 13.8808H3.17399C3.6908 13.8828 4.19572 14.036 4.62661 14.3213C5.05601 14.6057 5.3932 15.009 5.59701 15.4819C5.80908 15.965 5.87211 16.5005 5.77796 17.0198C5.68349 17.5408 5.43512 18.0215 5.06486 18.4L5.05715 18.4079L4.9971 18.4679C4.90413 18.5608 4.82998 18.6714 4.77965 18.7928C4.72933 18.9142 4.70343 19.0444 4.70343 19.1758C4.70343 19.3072 4.72933 19.4373 4.77965 19.5587C4.82998 19.6801 4.90374 19.7904 4.99671 19.8833L4.9975 19.8841C5.09037 19.977 5.20066 20.0508 5.32206 20.1011C5.44346 20.1515 5.57359 20.1774 5.705 20.1774C5.83641 20.1774 5.96654 20.1515 6.08794 20.1011C6.20934 20.0508 6.31963 19.977 6.4125 19.8841L6.48069 19.8159C6.85921 19.4456 7.34 19.1973 7.861 19.1028C8.37163 19.0102 8.89796 19.0696 9.37477 19.2733C9.86132 19.4589 10.2827 19.7838 10.5859 20.2077C10.8952 20.6402 11.0673 21.1558 11.0797 21.6874L11.08 21.7108V21.8008C11.08 22.066 11.1854 22.3204 11.3729 22.5079C11.5604 22.6954 11.8148 22.8008 12.08 22.8008C12.3452 22.8008 12.5996 22.6954 12.7871 22.5079C12.9746 22.3204 13.08 22.066 13.08 21.8008V21.6308L13.08 21.6268C13.0821 21.11 13.2352 20.6051 13.5206 20.1742C13.805 19.7447 14.2083 19.4075 14.6812 19.2037C15.1643 18.9917 15.6998 18.9287 16.219 19.0228C16.74 19.1173 17.2207 19.3657 17.5993 19.7359L17.6071 19.7436L17.6671 19.8037C17.76 19.8966 17.8707 19.9708 17.9921 20.0211C18.1135 20.0715 18.2436 20.0974 18.375 20.0974C18.5064 20.0974 18.6365 20.0715 18.7579 20.0211C18.8793 19.9708 18.9896 19.897 19.0825 19.8041L19.0833 19.8033C19.1763 19.7104 19.25 19.6001 19.3003 19.4787C19.3507 19.3573 19.3766 19.2272 19.3766 19.0958C19.3766 18.9644 19.3507 18.8342 19.3003 18.7128C19.25 18.5914 19.1763 18.4811 19.0833 18.3883L19.0151 18.3201C18.6448 17.9416 18.3965 17.4608 18.302 16.9398C18.2079 16.4206 18.2709 15.8851 18.4829 15.402C18.6867 14.9291 19.024 14.5257 19.4534 14.2413C19.8843 13.956 20.3892 13.8029 20.906 13.8008L20.91 13.8008L21 13.8008C21.2652 13.8008 21.5196 13.6954 21.7071 13.5079C21.8946 13.3204 22 13.066 22 12.8008C22 12.5356 21.8946 12.2812 21.7071 12.0937C21.5196 11.9061 21.2652 11.8008 21 11.8008H20.83L20.826 11.8008C20.3092 11.7987 19.8043 11.6456 19.3734 11.3602C18.9425 11.0749 18.6045 10.6697 18.4009 10.1947C18.3646 10.1102 18.3403 10.0212 18.3284 9.93039C18.1773 9.49876 18.14 9.03411 18.222 8.58178C18.3165 8.06079 18.5649 7.58003 18.9351 7.20152L18.9428 7.19363L19.0029 7.13368C19.0959 7.0408 19.17 6.93012 19.2203 6.80872C19.2707 6.68732 19.2966 6.5572 19.2966 6.42578C19.2966 6.29437 19.2707 6.16424 19.2203 6.04284C19.17 5.92144 19.0963 5.81116 19.0033 5.71828L19.0025 5.71749C18.9096 5.62452 18.7993 5.55076 18.6779 5.50043C18.5565 5.45011 18.4264 5.42421 18.295 5.42421C18.1636 5.42421 18.0335 5.45011 17.9121 5.50043C17.7907 5.55076 17.6804 5.62452 17.5875 5.71749L17.5193 5.78569C17.1408 6.15594 16.66 6.40428 16.139 6.49874C15.6198 6.59289 15.0843 6.52986 14.6011 6.31779C14.1282 6.11398 13.7249 5.77679 13.4406 5.3474C13.1552 4.91651 13.0021 4.41158 13 3.89477L13 3.89078V3.80078C13 3.53557 12.8946 3.28121 12.7071 3.09367C12.5196 2.90614 12.2652 2.80078 12 2.80078ZM19.4 15.8008L20.3149 16.2045C20.2624 16.3234 20.2468 16.4552 20.27 16.583C20.2929 16.7093 20.3527 16.8261 20.4419 16.9184L20.4967 16.9733C20.4966 16.9732 20.4968 16.9734 20.4967 16.9733C20.7755 17.2518 20.997 17.5829 21.1479 17.947C21.2989 18.3112 21.3766 18.7015 21.3766 19.0958C21.3766 19.49 21.2989 19.8804 21.1479 20.2446C20.9969 20.6088 20.7756 20.9397 20.4967 21.2183L19.79 20.5108L20.4975 21.2175C20.2189 21.4964 19.888 21.7177 19.5238 21.8687C19.1596 22.0196 18.7692 22.0974 18.375 22.0974C17.9808 22.0974 17.5904 22.0196 17.2262 21.8687C16.8622 21.7178 16.5314 21.4966 16.2529 21.2179C16.2528 21.2178 16.253 21.218 16.2529 21.2179L16.1977 21.1627C16.1053 21.0735 15.9886 21.0136 15.8622 20.9907C15.7344 20.9676 15.6026 20.9832 15.4838 21.0356L15.474 21.04C15.3574 21.0899 15.258 21.1728 15.1881 21.2785C15.1183 21.3837 15.0808 21.507 15.08 21.6333V21.8008C15.08 22.5964 14.7639 23.3595 14.2013 23.9221C13.6387 24.4847 12.8757 24.8008 12.08 24.8008C11.2843 24.8008 10.5213 24.4847 9.95868 23.9221C9.39607 23.3595 9.08 22.5964 9.08 21.8008V21.7251C9.07526 21.5979 9.03327 21.4749 8.95914 21.3712C8.88326 21.2651 8.77723 21.1843 8.65482 21.1393C8.63505 21.132 8.61551 21.1241 8.59624 21.1156C8.47742 21.0632 8.34561 21.0476 8.21782 21.0707C8.09142 21.0937 7.97467 21.1535 7.8823 21.2427L7.8275 21.2975C7.82737 21.2976 7.82763 21.2974 7.8275 21.2975C7.54896 21.5762 7.21784 21.7978 6.85382 21.9487C6.48963 22.0996 6.09925 22.1774 5.705 22.1774C5.31075 22.1774 4.92037 22.0996 4.55618 21.9487C4.19233 21.7978 3.86174 21.5768 3.58329 21.2983C3.30436 21.0197 3.08308 20.6888 2.93211 20.3246C2.78113 19.9604 2.70343 19.57 2.70343 19.1758C2.70343 18.7815 2.78113 18.3912 2.93211 18.027C3.08308 17.6628 3.30436 17.3319 3.58329 17.0533L3.63811 16.9985C3.72728 16.9061 3.78713 16.7894 3.81005 16.663C3.83322 16.5352 3.81758 16.4034 3.76514 16.2845L3.76081 16.2747C3.71087 16.1582 3.62801 16.0588 3.52232 15.9888C3.41704 15.9191 3.29374 15.8816 3.1675 15.8808H3C2.20435 15.8808 1.44129 15.5647 0.87868 15.0021C0.316071 14.4395 0 13.6764 0 12.8808C0 12.0851 0.316071 11.3221 0.87868 10.7595C1.44129 10.1969 2.20435 9.88078 3 9.88078H3.07564C3.20283 9.87604 3.32591 9.83405 3.42955 9.75992C3.53564 9.68405 3.61644 9.57801 3.66146 9.4556C3.66874 9.43583 3.67663 9.41629 3.68514 9.39702C3.73758 9.2782 3.75322 9.14639 3.73005 9.0186C3.70713 8.8922 3.64728 8.77546 3.5581 8.68309L3.50329 8.62828C3.22436 8.34966 3.00308 8.0188 2.85211 7.6546C2.70113 7.29041 2.62343 6.90003 2.62343 6.50578C2.62343 6.11153 2.70113 5.72115 2.85211 5.35696C3.00301 4.99294 3.22415 4.66221 3.50289 4.38367C3.78143 4.10493 4.11216 3.88379 4.47618 3.73289C4.84037 3.58192 5.23075 3.50421 5.625 3.50421C6.01925 3.50421 6.40963 3.58192 6.77382 3.73289C7.13802 3.88386 7.46888 4.10514 7.7475 4.38407L7.80231 4.43888C7.89468 4.52806 8.01142 4.58791 8.13782 4.61083C8.26561 4.634 8.39742 4.61836 8.51624 4.56592C8.58027 4.53766 8.64693 4.51627 8.71507 4.502C8.78479 4.45468 8.84498 4.39401 8.89195 4.3231C8.96167 4.21782 8.99921 4.09453 9 3.96828V3.80078C9 3.00513 9.31607 2.24207 9.87868 1.67946C10.4413 1.11685 11.2044 0.800781 12 0.800781C12.7956 0.800781 13.5587 1.11685 14.1213 1.67946C14.6839 2.24207 15 3.00513 15 3.80078V3.88828C15.0008 4.01453 15.0383 4.13782 15.1081 4.2431C15.178 4.34879 15.2774 4.4317 15.3939 4.48164L15.4038 4.48587C15.5226 4.53831 15.6544 4.554 15.7822 4.53083C15.9086 4.50791 16.0253 4.44807 16.1177 4.35889L16.1725 4.30407C16.4511 4.02514 16.782 3.80386 17.1462 3.65289C17.5104 3.50192 17.9008 3.42421 18.295 3.42421C18.6892 3.42421 19.0796 3.50192 19.4438 3.65289C19.808 3.80386 20.1389 4.02514 20.4175 4.30407C20.6961 4.58252 20.9171 4.91311 21.0679 5.27696C21.2189 5.64115 21.2966 6.03153 21.2966 6.42578C21.2966 6.82003 21.2189 7.21041 21.0679 7.5746C20.917 7.93863 20.6959 8.26935 20.4171 8.54789C20.417 8.54802 20.4172 8.54775 20.4171 8.54789L20.3619 8.60309C20.2727 8.69546 20.2129 8.8122 20.19 8.9386C20.1668 9.0664 20.1824 9.1982 20.2349 9.31702C20.2631 9.38105 20.2845 9.4477 20.2988 9.51585C20.3461 9.58557 20.4068 9.64576 20.4777 9.69273C20.583 9.76245 20.7063 9.79999 20.8325 9.80078H21C21.7957 9.80078 22.5587 10.1169 23.1213 10.6795C23.6839 11.2421 24 12.0051 24 12.8008C24 13.5964 23.6839 14.3595 23.1213 14.9221C22.5587 15.4847 21.7957 15.8008 21 15.8008H20.9125C20.7863 15.8016 20.663 15.8391 20.5577 15.9088C20.452 15.9788 20.3691 16.0782 20.3191 16.1947L19.4 15.8008Z" fill="black"/>
</svg>
