<svg width="22" height="17" viewBox="0 0 22 17" fill="none" xmlns="http://www.w3.org/2000/svg">
<path d="M10.0004 3.6C10.0004 4.55478 9.62111 5.47045 8.94598 6.14559C8.27084 6.82072 7.35517 7.2 6.40039 7.2C5.44561 7.2 4.52994 6.82072 3.85481 6.14559C3.17968 5.47045 2.80039 4.55478 2.80039 3.6C2.80039 2.64522 3.17968 1.72955 3.85481 1.05442C4.52994 0.379285 5.44561 0 6.40039 0C7.35517 0 8.27084 0.379285 8.94598 1.05442C9.62111 1.72955 10.0004 2.64522 10.0004 3.6ZM19.6004 3.6C19.6004 4.07276 19.5073 4.54089 19.3264 4.97766C19.1454 5.41443 18.8803 5.81129 18.546 6.14559C18.2117 6.47988 17.8148 6.74505 17.3781 6.92597C16.9413 7.10688 16.4732 7.2 16.0004 7.2C15.5276 7.2 15.0595 7.10688 14.6227 6.92597C14.186 6.74505 13.7891 6.47988 13.4548 6.14559C13.1205 5.81129 12.8553 5.41443 12.6744 4.97766C12.4935 4.54089 12.4004 4.07276 12.4004 3.6C12.4004 2.64522 12.7797 1.72955 13.4548 1.05442C14.1299 0.379285 15.0456 0 16.0004 0C16.9552 0 17.8708 0.379285 18.546 1.05442C19.2211 1.72955 19.6004 2.64522 19.6004 3.6ZM14.7164 16.8C14.7716 16.4076 14.8004 16.008 14.8004 15.6C14.8032 13.7146 14.1689 11.8836 13.0004 10.404C13.9125 9.8774 14.9471 9.60016 16.0004 9.60015C17.0536 9.60015 18.0882 9.87737 19.0003 10.404C19.9124 10.9306 20.6699 11.688 21.1965 12.6001C21.7231 13.5121 22.0004 14.5468 22.0004 15.6V16.8H14.7164ZM6.40039 9.6C7.99169 9.6 9.51781 10.2321 10.643 11.3574C11.7683 12.4826 12.4004 14.0087 12.4004 15.6V16.8H0.400391V15.6C0.400391 14.0087 1.03253 12.4826 2.15775 11.3574C3.28297 10.2321 4.80909 9.6 6.40039 9.6Z" fill="black"/>
</svg>
