<svg width="33" height="34" viewBox="0 0 33 34" fill="none" xmlns="http://www.w3.org/2000/svg">
<path d="M28.3841 27.1195L21.8551 20.5905C23.2802 18.7172 23.9406 16.3724 23.7025 14.0307C23.4645 11.6889 22.3459 9.52501 20.5729 7.97673C18.8 6.42844 16.5052 5.61138 14.1527 5.69084C11.8002 5.77031 9.56575 6.74037 7.90135 8.40477C6.23695 10.0692 5.26689 12.3036 5.18743 14.6561C5.10796 17.0086 5.92502 19.3034 7.47331 21.0764C9.0216 22.8493 11.1855 23.9679 13.5273 24.206C15.869 24.444 18.2138 23.7837 20.0871 22.3585L26.6161 28.8875C26.8526 29.1182 27.1698 29.2473 27.5001 29.2473C27.8304 29.2473 28.1477 29.1182 28.3841 28.8875C28.6184 28.653 28.7499 28.335 28.7499 28.0035C28.7499 27.672 28.6184 27.3541 28.3841 27.1195ZM7.75012 15.0005C7.75012 13.6655 8.146 12.3605 8.8877 11.2504C9.6294 10.1404 10.6836 9.27524 11.917 8.76435C13.1504 8.25346 14.5076 8.11979 15.817 8.38024C17.1264 8.64069 18.3291 9.28357 19.2731 10.2276C20.2171 11.1716 20.86 12.3743 21.1204 13.6837C21.3809 14.9931 21.2472 16.3503 20.7363 17.5837C20.2254 18.8171 19.3603 19.8713 18.2502 20.613C17.1402 21.3547 15.8351 21.7505 14.5001 21.7505C12.7106 21.7484 10.9949 21.0366 9.72949 19.7712C8.46408 18.5058 7.75224 16.7901 7.75012 15.0005Z" fill="black"/>
</svg>
