<svg width="33" height="34" viewBox="0 0 33 34" fill="none" xmlns="http://www.w3.org/2000/svg">
<g clip-path="url(#clip0_6837_4167)">
<path d="M22.6875 12.875C22.6875 14.516 22.0356 16.0898 20.8752 17.2502C19.7148 18.4106 18.141 19.0625 16.5 19.0625C14.859 19.0625 13.2852 18.4106 12.1248 17.2502C10.9644 16.0898 10.3125 14.516 10.3125 12.875C10.3125 11.234 10.9644 9.66016 12.1248 8.49978C13.2852 7.3394 14.859 6.6875 16.5 6.6875C18.141 6.6875 19.7148 7.3394 20.8752 8.49978C22.0356 9.66016 22.6875 11.234 22.6875 12.875Z" fill="#212529"/>
<path fill-rule="evenodd" clip-rule="evenodd" d="M0 17C0 12.6239 1.73839 8.42709 4.83274 5.33274C7.92709 2.23839 12.1239 0.5 16.5 0.5C20.8761 0.5 25.0729 2.23839 28.1673 5.33274C31.2616 8.42709 33 12.6239 33 17C33 21.3761 31.2616 25.5729 28.1673 28.6673C25.0729 31.7616 20.8761 33.5 16.5 33.5C12.1239 33.5 7.92709 31.7616 4.83274 28.6673C1.73839 25.5729 0 21.3761 0 17ZM16.5 2.5625C13.7812 2.56264 11.1176 3.3305 8.81596 4.77768C6.51428 6.22487 4.66802 8.29256 3.48968 10.7428C2.31133 13.193 1.8488 15.9261 2.15531 18.6276C2.46182 21.3291 3.52492 23.8892 5.22225 26.0131C6.68663 23.6536 9.91031 21.125 16.5 21.125C23.0897 21.125 26.3113 23.6516 27.7778 26.0131C29.4751 23.8892 30.5382 21.3291 30.8447 18.6276C31.1512 15.9261 30.6887 13.193 29.5103 10.7428C28.332 8.29256 26.4857 6.22487 24.184 4.77768C21.8824 3.3305 19.2188 2.56264 16.5 2.5625Z" fill="#212529"/>
</g>
<defs>
<clipPath id="clip0_6837_4167">
<rect width="33" height="33" fill="white" transform="translate(0 0.5)"/>
</clipPath>
</defs>
</svg>
