<svg width="33" height="34" viewBox="0 0 33 34" fill="none" xmlns="http://www.w3.org/2000/svg">
<g clip-path="url(#clip0_6837_4172)">
<path d="M22.6875 13.9062C22.6875 13.6327 22.7961 13.3704 22.9895 13.177C23.1829 12.9836 23.4452 12.875 23.7188 12.875H25.7812C26.0548 12.875 26.3171 12.9836 26.5105 13.177C26.7039 13.3704 26.8125 13.6327 26.8125 13.9062V15.9688C26.8125 16.2423 26.7039 16.5046 26.5105 16.698C26.3171 16.8914 26.0548 17 25.7812 17H23.7188C23.4452 17 23.1829 16.8914 22.9895 16.698C22.7961 16.5046 22.6875 16.2423 22.6875 15.9688V13.9062Z" fill="#212529"/>
<path d="M7.21875 0.5C7.49225 0.5 7.75456 0.608649 7.94795 0.802046C8.14135 0.995443 8.25 1.25775 8.25 1.53125V2.5625H24.75V1.53125C24.75 1.25775 24.8586 0.995443 25.052 0.802046C25.2454 0.608649 25.5077 0.5 25.7812 0.5C26.0548 0.5 26.3171 0.608649 26.5105 0.802046C26.7039 0.995443 26.8125 1.25775 26.8125 1.53125V2.5625H28.875C29.969 2.5625 31.0182 2.9971 31.7918 3.77068C32.5654 4.54427 33 5.59348 33 6.6875V29.375C33 30.469 32.5654 31.5182 31.7918 32.2918C31.0182 33.0654 29.969 33.5 28.875 33.5H4.125C3.03098 33.5 1.98177 33.0654 1.20818 32.2918C0.434597 31.5182 0 30.469 0 29.375V6.6875C0 5.59348 0.434597 4.54427 1.20818 3.77068C1.98177 2.9971 3.03098 2.5625 4.125 2.5625H6.1875V1.53125C6.1875 1.25775 6.29615 0.995443 6.48955 0.802046C6.68294 0.608649 6.94525 0.5 7.21875 0.5V0.5ZM2.0625 8.75V29.375C2.0625 29.922 2.2798 30.4466 2.66659 30.8334C3.05339 31.2202 3.57799 31.4375 4.125 31.4375H28.875C29.422 31.4375 29.9466 31.2202 30.3334 30.8334C30.7202 30.4466 30.9375 29.922 30.9375 29.375V8.75H2.0625Z" fill="#212529"/>
</g>
<defs>
<clipPath id="clip0_6837_4172">
<rect width="33" height="33" fill="white" transform="translate(0 0.5)"/>
</clipPath>
</defs>
</svg>
