<svg width="33" height="32" viewBox="0 0 33 32" fill="none" xmlns="http://www.w3.org/2000/svg">
<g clip-path="url(#clip0_8181_5835)">
<path d="M27.5 6C27.7652 6 28.0196 6.10536 28.2071 6.29289C28.3946 6.48043 28.5 6.73478 28.5 7V22H4.5V7C4.5 6.73478 4.60536 6.48043 4.79289 6.29289C4.98043 6.10536 5.23478 6 5.5 6H27.5ZM5.5 4C4.70435 4 3.94129 4.31607 3.37868 4.87868C2.81607 5.44129 2.5 6.20435 2.5 7V24H30.5V7C30.5 6.20435 30.1839 5.44129 29.6213 4.87868C29.0587 4.31607 28.2956 4 27.5 4H5.5ZM0.5 25H32.5C32.5 25.7956 32.1839 26.5587 31.6213 27.1213C31.0587 27.6839 30.2956 28 29.5 28H3.5C2.70435 28 1.94129 27.6839 1.37868 27.1213C0.81607 26.5587 0.5 25.7956 0.5 25H0.5Z" fill="#212529"/>
</g>
<defs>
<clipPath id="clip0_8181_5835">
<rect width="32" height="32" fill="white" transform="translate(0.5)"/>
</clipPath>
</defs>
</svg>
