<svg width="33" height="34" viewBox="0 0 33 34" fill="none" xmlns="http://www.w3.org/2000/svg">
<g clip-path="url(#clip0_6837_4175)">
<path d="M17.5312 6.04186C18.8801 4.6208 21.2066 4.21448 23.9498 4.49086C26.4949 4.74661 29.1122 5.56955 30.9375 6.33267V26.7989C29.0441 26.077 26.5918 25.3716 24.1581 25.1282C21.9017 24.8993 19.4597 25.0478 17.5312 26.143V6.04186ZM16.5 4.17736C14.4684 2.43042 11.5232 2.17055 8.84194 2.43867C5.71931 2.75423 2.56781 3.82467 0.604313 4.71773C0.424151 4.79967 0.271374 4.93172 0.164218 5.09813C0.0570626 5.26453 5.48036e-05 5.45825 0 5.65617L0 28.3437C4.77716e-05 28.5162 0.0433891 28.686 0.126054 28.8374C0.208719 28.9889 0.328065 29.1172 0.47316 29.2106C0.618255 29.304 0.784461 29.3594 0.956553 29.3719C1.12865 29.3844 1.30112 29.3535 1.45819 29.2821C3.27731 28.4571 6.20813 27.465 9.04819 27.1784C11.9543 26.8855 14.3901 27.3578 15.6956 28.9872C15.7923 29.1076 15.9147 29.2048 16.0539 29.2716C16.1931 29.3384 16.3456 29.3731 16.5 29.3731C16.6544 29.3731 16.8069 29.3384 16.9461 29.2716C17.0853 29.2048 17.2077 29.1076 17.3044 28.9872C18.6099 27.3578 21.0458 26.8855 23.9498 27.1784C26.7919 27.465 29.7248 28.4571 31.5418 29.2821C31.6989 29.3535 31.8714 29.3844 32.0434 29.3719C32.2155 29.3594 32.3817 29.304 32.5268 29.2106C32.6719 29.1172 32.7913 28.9889 32.8739 28.8374C32.9566 28.686 33 28.5162 33 28.3437V5.65617C32.9999 5.45825 32.9429 5.26453 32.8358 5.09813C32.7286 4.93172 32.5758 4.79967 32.3957 4.71773C30.4322 3.82467 27.2807 2.75423 24.1581 2.43867C21.4768 2.16848 18.5316 2.43042 16.5 4.17736Z" fill="#212529"/>
</g>
<defs>
<clipPath id="clip0_6837_4175">
<rect width="33" height="33" fill="white" transform="translate(0 0.5)"/>
</clipPath>
</defs>
</svg>
